<svg width="24" height="24" viewBox="0 0 24 24" fill="none" xmlns="http://www.w3.org/2000/svg">
<path d="M12.0007 0.332031C9.69321 0.332031 7.43758 1.01627 5.519 2.29822C3.60043 3.58017 2.10508 5.40225 1.22206 7.53406C0.339039 9.66586 0.108 12.0116 0.558161 14.2748C1.00832 16.5379 2.11946 18.6167 3.75108 20.2483C5.38269 21.8799 7.46149 22.991 9.7246 23.4412C11.9877 23.8914 14.3335 23.6603 16.4653 22.7773C18.5971 21.8943 20.4192 20.3989 21.7011 18.4804C22.9831 16.5618 23.6673 14.3061 23.6673 11.9987C23.6673 10.4666 23.3656 8.94952 22.7793 7.53406C22.1929 6.11859 21.3336 4.83247 20.2502 3.74912C19.1669 2.66577 17.8808 1.80641 16.4653 1.2201C15.0498 0.633799 13.5327 0.332031 12.0007 0.332031ZM12.0007 21.332C10.1547 21.332 8.35019 20.7846 6.81533 19.7591C5.28047 18.7335 4.0842 17.2759 3.37778 15.5704C2.67136 13.865 2.48653 11.9883 2.84666 10.1779C3.20679 8.36737 4.0957 6.70432 5.40099 5.39903C6.70628 4.09374 8.36932 3.20483 10.1798 2.8447C11.9903 2.48457 13.8669 2.6694 15.5724 3.37582C17.2778 4.08224 18.7355 5.27852 19.761 6.81338C20.7866 8.34823 21.334 10.1527 21.334 11.9987C21.334 14.4741 20.3507 16.848 18.6003 18.5984C16.85 20.3487 14.476 21.332 12.0007 21.332Z" fill="white"/>
<path d="M12.0013 5.00008C10.9183 5.00008 9.87972 5.43029 9.11395 6.19606C8.34818 6.96183 7.91797 8.00044 7.91797 9.08341C7.91797 9.39283 8.04089 9.68958 8.25968 9.90837C8.47847 10.1272 8.77522 10.2501 9.08464 10.2501C9.39405 10.2501 9.6908 10.1272 9.90959 9.90837C10.1284 9.68958 10.2513 9.39283 10.2513 9.08341C10.2513 8.73729 10.3539 8.39895 10.5462 8.11116C10.7385 7.82338 11.0118 7.59908 11.3316 7.46662C11.6514 7.33417 12.0032 7.29951 12.3427 7.36704C12.6822 7.43456 12.994 7.60123 13.2387 7.84597C13.4835 8.09072 13.6502 8.40254 13.7177 8.742C13.7852 9.08147 13.7505 9.43334 13.6181 9.75311C13.4856 10.0729 13.2613 10.3462 12.9735 10.5385C12.6858 10.7308 12.3474 10.8334 12.0013 10.8334C11.6919 10.8334 11.3951 10.9563 11.1763 11.1751C10.9576 11.3939 10.8346 11.6907 10.8346 12.0001V14.3334C10.8346 14.6428 10.9576 14.9396 11.1763 15.1584C11.3951 15.3772 11.6919 15.5001 12.0013 15.5001C12.3107 15.5001 12.6075 15.3772 12.8263 15.1584C13.0451 14.9396 13.168 14.6428 13.168 14.3334V12.9801C14.1108 12.7048 14.9222 12.0979 15.4529 11.2714C15.9835 10.4449 16.1975 9.45449 16.0554 8.48265C15.9133 7.51082 15.4247 6.62309 14.6797 5.9831C13.9347 5.34311 12.9835 4.99398 12.0013 5.00008Z" fill="white"/>
<path d="M12.0007 18.9974C12.645 18.9974 13.1673 18.4751 13.1673 17.8307C13.1673 17.1864 12.645 16.6641 12.0007 16.6641C11.3563 16.6641 10.834 17.1864 10.834 17.8307C10.834 18.4751 11.3563 18.9974 12.0007 18.9974Z" fill="white"/>
</svg>
