<svg width="29" height="29" viewBox="0 0 29 20" fill="none" xmlns="http://www.w3.org/2000/svg">
<g clip-path="url(#clip0)">
<path d="M22.053 7.24879H17.8238C17.4564 7.24879 17.1266 7.02767 16.9864 6.68933C16.8474 6.351 16.9236 5.96071 17.1834 5.70212L21.4125 1.47296C21.6711 1.21317 22.0614 1.13583 22.3997 1.276C22.7381 1.41617 22.9592 1.74725 22.9592 2.11337V6.34254C22.9592 6.84279 22.5532 7.24879 22.053 7.24879Z" fill="#A2792C"/>
<path d="M6.94922 15.7057C6.83201 15.7057 6.7148 15.6828 6.60243 15.6368C6.26409 15.4967 6.04297 15.1656 6.04297 14.7995V10.5703C6.04297 10.0701 6.44897 9.66406 6.94922 9.66406H11.1784C11.5457 9.66406 11.8756 9.88519 12.0158 10.2235C12.1547 10.5619 12.0786 10.9521 11.8188 11.2107L7.58964 15.4399C7.41684 15.6139 7.18484 15.7057 6.94922 15.7057Z" fill="#A2792C"/>
<path d="M7.444 7.99917C7.35096 7.99917 7.25792 7.98829 7.16367 7.96654C6.51479 7.81188 6.11362 7.16058 6.26708 6.51171C7.17817 2.67767 10.5639 0 14.4995 0C16.7397 0 18.8482 0.866375 20.4372 2.44083C20.9109 2.91088 20.9157 3.67575 20.4457 4.14942C19.9744 4.62308 19.212 4.62792 18.7359 4.15788C17.6025 3.03533 16.0981 2.41667 14.4995 2.41667C11.6889 2.41667 9.26979 4.32946 8.6185 7.07117C8.48558 7.62579 7.99017 7.99917 7.444 7.99917Z" fill="#A2792C"/>
<path d="M14.499 16.9162C12.2588 16.9162 10.1502 16.0498 8.56126 14.4754C8.0876 14.0053 8.08276 13.2404 8.5528 12.7668C9.02405 12.2919 9.78651 12.2883 10.2626 12.7583C11.396 13.8809 12.9004 14.4995 14.499 14.4995C17.3096 14.4995 19.7287 12.5867 20.38 9.84504C20.5346 9.19495 21.1871 8.79983 21.8348 8.94966C22.4837 9.10312 22.8848 9.75562 22.7302 10.4045C21.8203 14.2385 18.4346 16.9162 14.499 16.9162Z" fill="#A2792C"/>
</g>
<defs>
<clipPath id="clip0">
<rect width="29" height="29" fill="white"/>
</clipPath>
</defs>
</svg>
